<svg xmlns="http://www.w3.org/2000/svg" version="1.1" xmlns:xlink="http://www.w3.org/1999/xlink" xmlns:svgjs="http://svgjs.dev/svgjs" width="1440" height="560" preserveAspectRatio="none" viewBox="0 0 1440 560"><g mask="url(&quot;#SvgjsMask1000&quot;)" fill="none"><rect width="1440" height="560" x="0" y="0" fill="#0e2a47"></rect><path d="M191.64 151.25L256.59 188.75L256.59 263.75L191.64 301.25L126.68 263.75L126.68 188.75zM256.59 488.75L321.55 526.25L321.55 601.25L256.59 638.75L191.64 601.25L191.64 526.25zM321.55 -73.75L386.5 -36.25L386.5 38.75L321.55 76.25L256.59 38.75L256.59 -36.25zM386.5 38.75L451.45 76.25L451.45 151.25L386.5 188.75L321.55 151.25L321.55 76.25zM321.55 151.25L386.5 188.75L386.5 263.75L321.55 301.25L256.59 263.75L256.59 188.75zM386.5 263.75L451.45 301.25L451.45 376.25L386.5 413.75L321.55 376.25L321.55 301.25zM321.55 376.25L386.5 413.75L386.5 488.75L321.55 526.25L256.59 488.75L256.59 413.75zM451.45 376.25L516.41 413.75L516.41 488.75L451.45 526.25L386.5 488.75L386.5 413.75zM581.36 -73.75L646.31 -36.25L646.31 38.75L581.36 76.25L516.41 38.75L516.41 -36.25zM581.36 151.25L646.31 188.75L646.31 263.75L581.36 301.25L516.41 263.75L516.41 188.75zM646.31 263.75L711.27 301.25L711.27 376.25L646.31 413.75L581.36 376.25L581.36 301.25zM711.27 -73.75L776.22 -36.25L776.22 38.75L711.27 76.25L646.31 38.75L646.31 -36.25zM776.22 38.75L841.18 76.25L841.18 151.25L776.22 188.75L711.27 151.25L711.27 76.25zM906.13 38.75L971.08 76.25L971.08 151.25L906.13 188.75L841.17 151.25L841.17 76.25zM971.08 151.25L1036.04 188.75L1036.04 263.75L971.08 301.25L906.13 263.75L906.13 188.75zM1165.94 38.75L1230.9 76.25L1230.9 151.25L1165.94 188.75L1100.99 151.25L1100.99 76.25zM1165.94 263.75L1230.9 301.25L1230.9 376.25L1165.94 413.75L1100.99 376.25L1100.99 301.25zM1230.9 -73.75L1295.85 -36.25L1295.85 38.75L1230.9 76.25L1165.94 38.75L1165.94 -36.25zM1295.85 263.75L1360.8 301.25L1360.8 376.25L1295.85 413.75L1230.9 376.25L1230.9 301.25zM1425.76 263.75L1490.71 301.25L1490.71 376.25L1425.76 413.75L1360.81 376.25L1360.81 301.25zM1555.67 38.75L1620.62 76.25L1620.62 151.25L1555.67 188.75L1490.71 151.25L1490.71 76.25zM1555.67 488.75L1620.62 526.25L1620.62 601.25L1555.67 638.75L1490.71 601.25L1490.71 526.25z" stroke="#03305d" stroke-width="2"></path><path d="M184.14 151.25 a7.5 7.5 0 1 0 15 0 a7.5 7.5 0 1 0 -15 0zM249.09 188.75 a7.5 7.5 0 1 0 15 0 a7.5 7.5 0 1 0 -15 0zM249.09 263.75 a7.5 7.5 0 1 0 15 0 a7.5 7.5 0 1 0 -15 0zM184.14 301.25 a7.5 7.5 0 1 0 15 0 a7.5 7.5 0 1 0 -15 0zM119.18 263.75 a7.5 7.5 0 1 0 15 0 a7.5 7.5 0 1 0 -15 0zM119.18 188.75 a7.5 7.5 0 1 0 15 0 a7.5 7.5 0 1 0 -15 0zM249.09 488.75 a7.5 7.5 0 1 0 15 0 a7.5 7.5 0 1 0 -15 0zM314.05 526.25 a7.5 7.5 0 1 0 15 0 a7.5 7.5 0 1 0 -15 0zM314.05 601.25 a7.5 7.5 0 1 0 15 0 a7.5 7.5 0 1 0 -15 0zM249.09 638.75 a7.5 7.5 0 1 0 15 0 a7.5 7.5 0 1 0 -15 0zM184.14 601.25 a7.5 7.5 0 1 0 15 0 a7.5 7.5 0 1 0 -15 0zM184.14 526.25 a7.5 7.5 0 1 0 15 0 a7.5 7.5 0 1 0 -15 0zM314.05 -73.75 a7.5 7.5 0 1 0 15 0 a7.5 7.5 0 1 0 -15 0zM379 -36.25 a7.5 7.5 0 1 0 15 0 a7.5 7.5 0 1 0 -15 0zM379 38.75 a7.5 7.5 0 1 0 15 0 a7.5 7.5 0 1 0 -15 0zM314.05 76.25 a7.5 7.5 0 1 0 15 0 a7.5 7.5 0 1 0 -15 0zM249.09 38.75 a7.5 7.5 0 1 0 15 0 a7.5 7.5 0 1 0 -15 0zM249.09 -36.25 a7.5 7.5 0 1 0 15 0 a7.5 7.5 0 1 0 -15 0zM443.95 76.25 a7.5 7.5 0 1 0 15 0 a7.5 7.5 0 1 0 -15 0zM443.95 151.25 a7.5 7.5 0 1 0 15 0 a7.5 7.5 0 1 0 -15 0zM379 188.75 a7.5 7.5 0 1 0 15 0 a7.5 7.5 0 1 0 -15 0zM314.05 151.25 a7.5 7.5 0 1 0 15 0 a7.5 7.5 0 1 0 -15 0zM379 263.75 a7.5 7.5 0 1 0 15 0 a7.5 7.5 0 1 0 -15 0zM314.05 301.25 a7.5 7.5 0 1 0 15 0 a7.5 7.5 0 1 0 -15 0zM443.95 301.25 a7.5 7.5 0 1 0 15 0 a7.5 7.5 0 1 0 -15 0zM443.95 376.25 a7.5 7.5 0 1 0 15 0 a7.5 7.5 0 1 0 -15 0zM379 413.75 a7.5 7.5 0 1 0 15 0 a7.5 7.5 0 1 0 -15 0zM314.05 376.25 a7.5 7.5 0 1 0 15 0 a7.5 7.5 0 1 0 -15 0zM379 488.75 a7.5 7.5 0 1 0 15 0 a7.5 7.5 0 1 0 -15 0zM249.09 413.75 a7.5 7.5 0 1 0 15 0 a7.5 7.5 0 1 0 -15 0zM508.91 413.75 a7.5 7.5 0 1 0 15 0 a7.5 7.5 0 1 0 -15 0zM508.91 488.75 a7.5 7.5 0 1 0 15 0 a7.5 7.5 0 1 0 -15 0zM443.95 526.25 a7.5 7.5 0 1 0 15 0 a7.5 7.5 0 1 0 -15 0zM573.86 -73.75 a7.5 7.5 0 1 0 15 0 a7.5 7.5 0 1 0 -15 0zM638.81 -36.25 a7.5 7.5 0 1 0 15 0 a7.5 7.5 0 1 0 -15 0zM638.81 38.75 a7.5 7.5 0 1 0 15 0 a7.5 7.5 0 1 0 -15 0zM573.86 76.25 a7.5 7.5 0 1 0 15 0 a7.5 7.5 0 1 0 -15 0zM508.91 38.75 a7.5 7.5 0 1 0 15 0 a7.5 7.5 0 1 0 -15 0zM508.91 -36.25 a7.5 7.5 0 1 0 15 0 a7.5 7.5 0 1 0 -15 0zM573.86 151.25 a7.5 7.5 0 1 0 15 0 a7.5 7.5 0 1 0 -15 0zM638.81 188.75 a7.5 7.5 0 1 0 15 0 a7.5 7.5 0 1 0 -15 0zM638.81 263.75 a7.5 7.5 0 1 0 15 0 a7.5 7.5 0 1 0 -15 0zM573.86 301.25 a7.5 7.5 0 1 0 15 0 a7.5 7.5 0 1 0 -15 0zM508.91 263.75 a7.5 7.5 0 1 0 15 0 a7.5 7.5 0 1 0 -15 0zM508.91 188.75 a7.5 7.5 0 1 0 15 0 a7.5 7.5 0 1 0 -15 0zM703.77 301.25 a7.5 7.5 0 1 0 15 0 a7.5 7.5 0 1 0 -15 0zM703.77 376.25 a7.5 7.5 0 1 0 15 0 a7.5 7.5 0 1 0 -15 0zM638.81 413.75 a7.5 7.5 0 1 0 15 0 a7.5 7.5 0 1 0 -15 0zM573.86 376.25 a7.5 7.5 0 1 0 15 0 a7.5 7.5 0 1 0 -15 0zM703.77 -73.75 a7.5 7.5 0 1 0 15 0 a7.5 7.5 0 1 0 -15 0zM768.72 -36.25 a7.5 7.5 0 1 0 15 0 a7.5 7.5 0 1 0 -15 0zM768.72 38.75 a7.5 7.5 0 1 0 15 0 a7.5 7.5 0 1 0 -15 0zM703.77 76.25 a7.5 7.5 0 1 0 15 0 a7.5 7.5 0 1 0 -15 0zM833.68 76.25 a7.5 7.5 0 1 0 15 0 a7.5 7.5 0 1 0 -15 0zM833.68 151.25 a7.5 7.5 0 1 0 15 0 a7.5 7.5 0 1 0 -15 0zM768.72 188.75 a7.5 7.5 0 1 0 15 0 a7.5 7.5 0 1 0 -15 0zM703.77 151.25 a7.5 7.5 0 1 0 15 0 a7.5 7.5 0 1 0 -15 0zM898.63 38.75 a7.5 7.5 0 1 0 15 0 a7.5 7.5 0 1 0 -15 0zM963.58 76.25 a7.5 7.5 0 1 0 15 0 a7.5 7.5 0 1 0 -15 0zM963.58 151.25 a7.5 7.5 0 1 0 15 0 a7.5 7.5 0 1 0 -15 0zM898.63 188.75 a7.5 7.5 0 1 0 15 0 a7.5 7.5 0 1 0 -15 0zM833.67 151.25 a7.5 7.5 0 1 0 15 0 a7.5 7.5 0 1 0 -15 0zM833.67 76.25 a7.5 7.5 0 1 0 15 0 a7.5 7.5 0 1 0 -15 0zM1028.54 188.75 a7.5 7.5 0 1 0 15 0 a7.5 7.5 0 1 0 -15 0zM1028.54 263.75 a7.5 7.5 0 1 0 15 0 a7.5 7.5 0 1 0 -15 0zM963.58 301.25 a7.5 7.5 0 1 0 15 0 a7.5 7.5 0 1 0 -15 0zM898.63 263.75 a7.5 7.5 0 1 0 15 0 a7.5 7.5 0 1 0 -15 0zM1158.44 38.75 a7.5 7.5 0 1 0 15 0 a7.5 7.5 0 1 0 -15 0zM1223.4 76.25 a7.5 7.5 0 1 0 15 0 a7.5 7.5 0 1 0 -15 0zM1223.4 151.25 a7.5 7.5 0 1 0 15 0 a7.5 7.5 0 1 0 -15 0zM1158.44 188.75 a7.5 7.5 0 1 0 15 0 a7.5 7.5 0 1 0 -15 0zM1093.49 151.25 a7.5 7.5 0 1 0 15 0 a7.5 7.5 0 1 0 -15 0zM1093.49 76.25 a7.5 7.5 0 1 0 15 0 a7.5 7.5 0 1 0 -15 0zM1158.44 263.75 a7.5 7.5 0 1 0 15 0 a7.5 7.5 0 1 0 -15 0zM1223.4 301.25 a7.5 7.5 0 1 0 15 0 a7.5 7.5 0 1 0 -15 0zM1223.4 376.25 a7.5 7.5 0 1 0 15 0 a7.5 7.5 0 1 0 -15 0zM1158.44 413.75 a7.5 7.5 0 1 0 15 0 a7.5 7.5 0 1 0 -15 0zM1093.49 376.25 a7.5 7.5 0 1 0 15 0 a7.5 7.5 0 1 0 -15 0zM1093.49 301.25 a7.5 7.5 0 1 0 15 0 a7.5 7.5 0 1 0 -15 0zM1223.4 -73.75 a7.5 7.5 0 1 0 15 0 a7.5 7.5 0 1 0 -15 0zM1288.35 -36.25 a7.5 7.5 0 1 0 15 0 a7.5 7.5 0 1 0 -15 0zM1288.35 38.75 a7.5 7.5 0 1 0 15 0 a7.5 7.5 0 1 0 -15 0zM1158.44 -36.25 a7.5 7.5 0 1 0 15 0 a7.5 7.5 0 1 0 -15 0zM1288.35 263.75 a7.5 7.5 0 1 0 15 0 a7.5 7.5 0 1 0 -15 0zM1353.3 301.25 a7.5 7.5 0 1 0 15 0 a7.5 7.5 0 1 0 -15 0zM1353.3 376.25 a7.5 7.5 0 1 0 15 0 a7.5 7.5 0 1 0 -15 0zM1288.35 413.75 a7.5 7.5 0 1 0 15 0 a7.5 7.5 0 1 0 -15 0zM1418.26 263.75 a7.5 7.5 0 1 0 15 0 a7.5 7.5 0 1 0 -15 0zM1483.21 301.25 a7.5 7.5 0 1 0 15 0 a7.5 7.5 0 1 0 -15 0zM1483.21 376.25 a7.5 7.5 0 1 0 15 0 a7.5 7.5 0 1 0 -15 0zM1418.26 413.75 a7.5 7.5 0 1 0 15 0 a7.5 7.5 0 1 0 -15 0zM1353.31 376.25 a7.5 7.5 0 1 0 15 0 a7.5 7.5 0 1 0 -15 0zM1353.31 301.25 a7.5 7.5 0 1 0 15 0 a7.5 7.5 0 1 0 -15 0zM1548.17 38.75 a7.5 7.5 0 1 0 15 0 a7.5 7.5 0 1 0 -15 0zM1613.12 76.25 a7.5 7.5 0 1 0 15 0 a7.5 7.5 0 1 0 -15 0zM1613.12 151.25 a7.5 7.5 0 1 0 15 0 a7.5 7.5 0 1 0 -15 0zM1548.17 188.75 a7.5 7.5 0 1 0 15 0 a7.5 7.5 0 1 0 -15 0zM1483.21 151.25 a7.5 7.5 0 1 0 15 0 a7.5 7.5 0 1 0 -15 0zM1483.21 76.25 a7.5 7.5 0 1 0 15 0 a7.5 7.5 0 1 0 -15 0zM1548.17 488.75 a7.5 7.5 0 1 0 15 0 a7.5 7.5 0 1 0 -15 0zM1613.12 526.25 a7.5 7.5 0 1 0 15 0 a7.5 7.5 0 1 0 -15 0zM1613.12 601.25 a7.5 7.5 0 1 0 15 0 a7.5 7.5 0 1 0 -15 0zM1548.17 638.75 a7.5 7.5 0 1 0 15 0 a7.5 7.5 0 1 0 -15 0zM1483.21 601.25 a7.5 7.5 0 1 0 15 0 a7.5 7.5 0 1 0 -15 0zM1483.21 526.25 a7.5 7.5 0 1 0 15 0 a7.5 7.5 0 1 0 -15 0z" fill="#03305d"></path><path d="M8.87 -26.06L52.17 -1.06L52.17 48.94L8.87 73.94L-34.43 48.94L-34.43 -1.06zM138.78 48.94L182.08 73.94L182.08 123.94L138.78 148.94L95.48 123.94L95.48 73.94zM95.48 273.94L138.78 298.94L138.78 348.94L95.48 373.94L52.17 348.94L52.17 298.94zM225.38 48.94L268.69 73.94L268.69 123.94L225.38 148.94L182.08 123.94L182.08 73.94zM225.38 198.94L268.69 223.94L268.69 273.94L225.38 298.94L182.08 273.94L182.08 223.94zM182.08 273.94L225.38 298.94L225.38 348.94L182.08 373.94L138.78 348.94L138.78 298.94zM182.08 423.94L225.38 448.94L225.38 498.94L182.08 523.94L138.78 498.94L138.78 448.94zM268.69 -26.06L311.99 -1.06L311.99 48.94L268.69 73.94L225.38 48.94L225.38 -1.06zM311.99 48.94L355.29 73.94L355.29 123.94L311.99 148.94L268.69 123.94L268.69 73.94zM311.99 198.94L355.29 223.94L355.29 273.94L311.99 298.94L268.69 273.94L268.69 223.94zM311.99 498.94L355.29 523.94L355.29 573.94L311.99 598.94L268.69 573.94L268.69 523.94zM398.59 198.94L441.9 223.94L441.9 273.94L398.59 298.94L355.29 273.94L355.29 223.94zM441.9 123.94L485.2 148.94L485.2 198.94L441.9 223.94L398.59 198.94L398.59 148.94zM485.2 198.94L528.5 223.94L528.5 273.94L485.2 298.94L441.9 273.94L441.9 223.94zM571.8 48.94L615.11 73.94L615.11 123.94L571.8 148.94L528.5 123.94L528.5 73.94zM658.41 48.94L701.71 73.94L701.71 123.94L658.41 148.94L615.11 123.94L615.11 73.94zM615.11 423.94L658.41 448.94L658.41 498.94L615.11 523.94L571.8 498.94L571.8 448.94zM701.71 -26.06L745.01 -1.06L745.01 48.94L701.71 73.94L658.41 48.94L658.41 -1.06zM831.62 48.94L874.92 73.94L874.92 123.94L831.62 148.94L788.32 123.94L788.32 73.94zM788.32 273.94L831.62 298.94L831.62 348.94L788.32 373.94L745.01 348.94L745.01 298.94zM788.32 423.94L831.62 448.94L831.62 498.94L788.32 523.94L745.01 498.94L745.01 448.94zM831.62 498.94L874.92 523.94L874.92 573.94L831.62 598.94L788.32 573.94L788.32 523.94zM918.22 48.94L961.53 73.94L961.53 123.94L918.22 148.94L874.92 123.94L874.92 73.94zM918.22 198.94L961.53 223.94L961.53 273.94L918.22 298.94L874.92 273.94L874.92 223.94zM918.22 348.94L961.53 373.94L961.53 423.94L918.22 448.94L874.92 423.94L874.92 373.94zM874.92 423.94L918.22 448.94L918.22 498.94L874.92 523.94L831.62 498.94L831.62 448.94zM961.53 -26.06L1004.83 -1.06L1004.83 48.94L961.53 73.94L918.22 48.94L918.22 -1.06zM1004.83 48.94L1048.13 73.94L1048.13 123.94L1004.83 148.94L961.53 123.94L961.53 73.94zM1004.83 198.94L1048.13 223.94L1048.13 273.94L1004.83 298.94L961.53 273.94L961.53 223.94zM1004.83 348.94L1048.13 373.94L1048.13 423.94L1004.83 448.94L961.53 423.94L961.53 373.94zM1048.13 123.94L1091.43 148.94L1091.43 198.94L1048.13 223.94L1004.83 198.94L1004.83 148.94zM1091.43 498.94L1134.73 523.94L1134.73 573.94L1091.43 598.94L1048.13 573.94L1048.13 523.94zM1134.73 123.94L1178.04 148.94L1178.04 198.94L1134.73 223.94L1091.43 198.94L1091.43 148.94zM1178.04 498.94L1221.34 523.94L1221.34 573.94L1178.04 598.94L1134.73 573.94L1134.73 523.94zM1221.34 123.94L1264.64 148.94L1264.64 198.94L1221.34 223.94L1178.04 198.94L1178.04 148.94zM1221.34 273.94L1264.64 298.94L1264.64 348.94L1221.34 373.94L1178.04 348.94L1178.04 298.94zM1264.64 498.94L1307.94 523.94L1307.94 573.94L1264.64 598.94L1221.34 573.94L1221.34 523.94zM1351.25 48.94L1394.55 73.94L1394.55 123.94L1351.25 148.94L1307.94 123.94L1307.94 73.94zM1307.94 423.94L1351.25 448.94L1351.25 498.94L1307.94 523.94L1264.64 498.94L1264.64 448.94zM1351.25 498.94L1394.55 523.94L1394.55 573.94L1351.25 598.94L1307.94 573.94L1307.94 523.94zM1437.85 48.94L1481.15 73.94L1481.15 123.94L1437.85 148.94L1394.55 123.94L1394.55 73.94zM1394.55 423.94L1437.85 448.94L1437.85 498.94L1394.55 523.94L1351.25 498.94L1351.25 448.94z" stroke="rgba(6, 80, 156, 0.93)" stroke-width="2"></path></g><defs><mask id="SvgjsMask1000"><rect width="1440" height="560" fill="#ffffff"></rect></mask></defs></svg>